<svg width="56" height="56" viewBox="0 0 56 56" version="1.1" xmlns="http://www.w3.org/2000/svg" xmlns:xlink="http://www.w3.org/1999/xlink">
<title>Group</title>
<desc>Created using Figma</desc>
<g id="Canvas" transform="translate(-2647 -748)">
<g id="Group">
<g id="topDestinationsCategoryIcon" filter="url(#filter0_d)">
<use xlink:href="#path0_fill" transform="translate(2651 750)" fill="#FFFFFF"/>
</g>
<g id="svg">
<g id="Shape">
<use xlink:href="#path1_fill" transform="translate(2664 763)" fill="#A0B0B9"/>
</g>
</g>
</g>
</g>
<defs>
<filter id="filter0_d" filterUnits="userSpaceOnUse" x="2647" y="748" width="56" height="56" color-interpolation-filters="sRGB">
<feFlood flood-opacity="0" result="BackgroundImageFix"/>
<feColorMatrix in="SourceAlpha" type="matrix" values="0 0 0 0 0 0 0 0 0 0 0 0 0 0 0 0 0 0 255 0"/>
<feOffset dx="0" dy="2"/>
<feGaussianBlur stdDeviation="2"/>
<feColorMatrix type="matrix" values="0 0 0 0 0.290196 0 0 0 0 0.290196 0 0 0 0 0.290196 0 0 0 0.1 0"/>
<feBlend mode="normal" in2="BackgroundImageFix" result="effect1_dropShadow"/>
<feBlend mode="normal" in="SourceGraphic" in2="effect1_dropShadow" result="shape"/>
</filter>
<path id="path0_fill" fill-rule="evenodd" d="M 0 24C 0 10.7452 10.7452 0 24 0C 37.2548 0 48 10.7452 48 24C 48 37.2548 37.2548 48 24 48C 10.7452 48 0 37.2548 0 24Z"/>
<path id="path1_fill" fill-rule="evenodd" d="M 16.21 8.08209L 11.8301 0.486328C 11.6399 0.162109 11.3201 0 11 0C 10.6799 0 10.3601 0.162109 10.1699 0.497925L 5.79004 8.08209L 1 8.08209C 0.449951 8.08209 0 8.60315 0 9.23999C 0 9.34424 0.0100098 9.44843 0.0400391 9.55261L 2.58008 20.2863C 2.81006 21.259 3.58008 21.9769 4.5 21.9769L 17.5 21.9769C 18.4199 21.9769 19.1899 21.259 19.4299 20.2863L 21.97 9.55261L 22 9.23999C 22 8.60315 21.55 8.08209 21 8.08209L 16.21 8.08209ZM 8 8.08209L 11 2.98737L 14 8.08209L 8 8.08209ZM 9 15.0295C 9 16.3032 9.8999 17.3453 11 17.3453C 12.1001 17.3453 13 16.3032 13 15.0295C 13 13.7558 12.1001 12.7137 11 12.7137C 9.8999 12.7137 9 13.7558 9 15.0295Z"/>
</defs>
</svg>
